<svg width="25" height="25" viewBox="0 0 25 25" fill="none" xmlns="http://www.w3.org/2000/svg">
<path d="M22.557 9.167H22.45C22.13 9.164 21.844 8.965 21.73 8.667C21.61 8.378 21.675 8.046 21.897 7.825L21.973 7.749C22.924 6.794 22.924 5.249 21.973 4.293L20.713 3.035C19.759 2.082 18.213 2.082 17.258 3.035L17.183 3.111C16.954 3.331 16.617 3.394 16.324 3.273C16.032 3.151 15.839 2.868 15.834 2.551V2.443C15.831 1.094 14.738 0.001 13.39 0H11.61C10.261 0.001 9.168 1.094 9.167 2.443V2.551C9.158 2.865 8.966 3.146 8.675 3.266C8.385 3.386 8.05 3.324 7.822 3.107L7.75 3.032C6.795 2.079 5.25 2.079 4.295 3.032L3.032 4.29C2.08 5.245 2.08 6.79 3.032 7.746L3.107 7.822C3.331 8.05 3.392 8.392 3.262 8.684C3.145 8.974 2.863 9.166 2.55 9.167H2.443C1.094 9.168 0.001 10.26 0 11.61V13.39C0.001 14.739 1.094 15.832 2.443 15.833H2.55C2.87 15.836 3.156 16.035 3.27 16.333C3.39 16.622 3.325 16.954 3.103 17.175L3.027 17.251C2.076 18.206 2.076 19.751 3.027 20.707L4.286 21.964C5.24 22.918 6.787 22.918 7.742 21.964L7.817 21.888C8.047 21.665 8.388 21.604 8.68 21.734C8.97 21.851 9.162 22.132 9.162 22.445V22.552C9.162 23.202 9.42 23.825 9.879 24.284C10.338 24.743 10.961 25 11.61 25H13.39C14.739 24.999 15.832 23.906 15.833 22.557V22.449C15.842 22.135 16.034 21.854 16.325 21.734C16.615 21.614 16.95 21.676 17.178 21.892L17.254 21.968C18.209 22.921 19.754 22.921 20.709 21.968L21.969 20.711C22.92 19.755 22.92 18.211 21.969 17.255L21.892 17.179C21.669 16.951 21.608 16.609 21.738 16.317C21.855 16.026 22.137 15.835 22.45 15.833H22.557C23.906 15.832 24.999 14.739 25 13.39V11.61C24.999 10.261 23.906 9.168 22.557 9.167V9.167ZM23.333 13.39C23.333 13.819 22.985 14.166 22.557 14.167H22.45C21.461 14.175 20.574 14.774 20.195 15.687C19.817 16.6 20.021 17.652 20.715 18.357L20.789 18.433C21.092 18.736 21.092 19.228 20.789 19.532L19.53 20.789C19.227 21.092 18.735 21.092 18.432 20.789L18.357 20.713C17.651 20.021 16.601 19.817 15.687 20.196C14.775 20.574 14.176 21.461 14.167 22.449V22.557C14.167 22.985 13.819 23.333 13.39 23.333H11.61C11.181 23.333 10.834 22.985 10.833 22.557V22.449C10.829 21.459 10.23 20.568 9.315 20.189C8.4 19.81 7.347 20.017 6.643 20.714L6.568 20.79C6.264 21.092 5.773 21.092 5.469 20.79L4.211 19.532C3.908 19.229 3.908 18.737 4.211 18.433L4.287 18.358C4.98 17.652 5.185 16.601 4.807 15.687C4.427 14.773 3.539 14.174 2.55 14.167H2.443C2.015 14.167 1.667 13.819 1.667 13.39V11.61C1.667 11.181 2.015 10.834 2.443 10.833H2.55C3.539 10.825 4.426 10.226 4.805 9.313C5.183 8.4 4.979 7.348 4.285 6.643L4.211 6.568C3.908 6.264 3.908 5.773 4.211 5.469L5.469 4.21C5.772 3.907 6.264 3.907 6.567 4.21L6.642 4.286C7.348 4.979 8.399 5.183 9.312 4.805C10.225 4.427 10.824 3.539 10.833 2.551V2.443C10.833 2.015 11.181 1.667 11.61 1.667H13.39C13.819 1.667 14.166 2.015 14.167 2.443V2.551C14.175 3.539 14.774 4.427 15.687 4.805C16.601 5.183 17.652 4.979 18.357 4.285L18.433 4.21C18.736 3.907 19.228 3.907 19.531 4.21L20.789 5.47C21.092 5.773 21.092 6.264 20.789 6.568L20.713 6.643C20.02 7.349 19.816 8.4 20.195 9.313C20.573 10.227 21.461 10.825 22.45 10.833H22.557C22.985 10.833 23.333 11.181 23.333 11.61V13.39V13.39Z" fill="url(#paint0_linear)"/>
<path d="M12.5 6.66699C9.278 6.66699 6.667 9.27799 6.667 12.5C6.667 15.722 9.278 18.333 12.5 18.333C15.722 18.333 18.333 15.722 18.333 12.5C18.33 9.27999 15.72 6.66999 12.5 6.66699ZM12.5 16.667C10.199 16.667 8.333 14.801 8.333 12.5C8.333 10.199 10.199 8.33299 12.5 8.33299C14.801 8.33299 16.667 10.199 16.667 12.5C16.664 14.8 14.8 16.664 12.5 16.667V16.667Z" fill="url(#paint1_linear)"/>
<defs>
<linearGradient id="paint0_linear" x1="0" y1="12.5" x2="25" y2="12.5" gradientUnits="userSpaceOnUse">
<stop stop-color="#FF5491"/>
<stop offset="1" stop-color="#E59554"/>
</linearGradient>
<linearGradient id="paint1_linear" x1="6.667" y1="12.5" x2="18.333" y2="12.5" gradientUnits="userSpaceOnUse">
<stop stop-color="#FF5491"/>
<stop offset="1" stop-color="#E59554"/>
</linearGradient>
</defs>
</svg>
