<svg width="28" height="21" viewBox="0 0 28 21" fill="none" xmlns="http://www.w3.org/2000/svg">
<path d="M13.4999 9.911C15.3199 9.911 16.9609 8.815 17.6569 7.133C18.3539 5.451 17.9689 3.516 16.6819 2.229C15.3939 0.941001 13.4589 0.557001 11.7769 1.254C10.0959 1.951 8.99995 3.591 8.99995 5.411C9.00295 7.896 11.0159 9.908 13.4999 9.911ZM13.4999 2.734C14.9799 2.734 16.1779 3.933 16.1779 5.412C16.1779 6.892 14.9789 8.09 13.4999 8.09C12.0199 8.09 10.8209 6.891 10.8209 5.412C10.8229 3.934 12.0209 2.736 13.4999 2.734ZM5.11095 12.578C7.01295 12.578 8.55595 11.036 8.55595 9.133C8.55595 7.231 7.01295 5.689 5.11095 5.689C3.20895 5.689 1.66695 7.231 1.66695 9.133C1.66695 11.036 3.20895 12.578 5.11095 12.578ZM5.11095 7.502C6.01195 7.502 6.74295 8.232 6.74295 9.133C6.74295 10.034 6.01295 10.765 5.11095 10.765C4.20995 10.765 3.47995 10.035 3.47995 9.133C3.47995 8.701 3.65095 8.286 3.95695 7.98C4.26295 7.674 4.67795 7.502 5.11095 7.502V7.502ZM21.9999 12.578C23.9019 12.578 25.4439 11.036 25.4439 9.133C25.4439 7.231 23.9019 5.689 21.9999 5.689C20.0979 5.689 18.5559 7.231 18.5559 9.133C18.5559 11.036 20.0979 12.578 21.9999 12.578ZM21.9999 7.502C22.9009 7.502 23.6319 8.232 23.6319 9.133C23.6319 10.034 22.9019 10.765 21.9999 10.765C21.0989 10.765 20.3679 10.035 20.3679 9.133C20.3679 8.701 20.5399 8.286 20.8459 7.98C21.1519 7.674 21.5669 7.502 21.9999 7.502V7.502ZM22.0769 14.36C21.2819 14.365 20.4999 14.57 19.8039 14.953C18.4579 12.819 16.1299 11.509 13.6109 11.467C11.0919 11.509 8.76395 12.819 7.41895 14.953C6.72195 14.569 5.94095 14.365 5.14495 14.36C2.17495 14.505 -0.121053 17.026 0.00494739 20.002C0.00494739 20.504 0.410947 20.911 0.911947 20.911C1.41295 20.911 1.81895 20.504 1.81895 20.002C1.69495 18.03 3.17895 16.325 5.14495 16.177C5.64695 16.181 6.13895 16.312 6.57495 16.558C6.14795 17.638 5.92895 18.788 5.93095 19.95C5.93095 20.451 6.33695 20.858 6.83795 20.858C7.33795 20.858 7.74495 20.451 7.74495 19.95C7.74495 16.274 10.3749 13.284 13.6109 13.284C16.8469 13.284 19.4769 16.274 19.4769 19.95C19.4769 20.451 19.8829 20.858 20.3839 20.858C20.8849 20.858 21.2909 20.451 21.2909 19.95C21.2929 18.788 21.0739 17.637 20.6459 16.558C21.0829 16.312 21.5759 16.181 22.0759 16.178C24.0439 16.325 25.5259 18.03 25.4029 20.002C25.4029 20.504 25.8089 20.911 26.3099 20.911C26.8109 20.911 27.2169 20.504 27.2169 20.002C27.3429 17.026 25.0469 14.505 22.0769 14.36V14.36Z" fill="url(#paint0_linear)"/>
<defs>
<linearGradient id="paint0_linear" x1="0" y1="10.9109" x2="27.2219" y2="10.9109" gradientUnits="userSpaceOnUse">
<stop stop-color="#FF5491"/>
<stop offset="1" stop-color="#E59554"/>
</linearGradient>
</defs>
</svg>
