<svg width="25" height="26" viewBox="0 0 25 26" fill="none" xmlns="http://www.w3.org/2000/svg">
<path d="M21.844 0.910995H3.121C1.398 0.912995 0 2.309 0 4.031V18.216C0.002 19.939 1.398 21.335 3.12 21.336H8.51L11.574 25.422C11.789 25.707 12.125 25.876 12.482 25.876C12.839 25.876 13.176 25.707 13.39 25.422L16.454 21.337H21.844C23.567 21.335 24.963 19.939 24.964 18.216V4.032C24.964 2.309 23.568 0.910995 21.845 0.910995H21.844ZM22.695 18.216C22.694 18.686 22.313 19.066 21.844 19.067H15.887C15.529 19.067 15.193 19.235 14.979 19.521L12.482 22.849L9.986 19.521C9.772 19.235 9.436 19.067 9.078 19.067H3.121C2.651 19.066 2.271 18.685 2.27 18.216V4.032C2.27 3.562 2.651 3.182 3.12 3.181H21.844C22.314 3.181 22.694 3.562 22.695 4.031V18.216Z" fill="url(#paint0_linear)"/>
<path d="M12.482 8.85399H10.212C9.586 8.85399 9.078 9.36199 9.078 9.98899C9.078 10.616 9.586 11.124 10.213 11.124H11.348V16.798C11.348 17.424 11.856 17.932 12.482 17.932C13.109 17.932 13.617 17.424 13.617 16.798V9.98899C13.617 9.36199 13.109 8.85399 12.482 8.85399Z" fill="url(#paint1_linear)"/>
<path d="M12.482 7.72C13.1088 7.72 13.617 7.21184 13.617 6.585C13.617 5.95815 13.1088 5.45 12.482 5.45C11.8551 5.45 11.347 5.95815 11.347 6.585C11.347 7.21184 11.8551 7.72 12.482 7.72Z" fill="url(#paint2_linear)"/>
<defs>
<linearGradient id="paint0_linear" x1="0" y1="13.3935" x2="24.964" y2="13.3935" gradientUnits="userSpaceOnUse">
<stop stop-color="#FF5491"/>
<stop offset="1" stop-color="#E59554"/>
</linearGradient>
<linearGradient id="paint1_linear" x1="9.078" y1="13.393" x2="13.617" y2="13.393" gradientUnits="userSpaceOnUse">
<stop stop-color="#FF5491"/>
<stop offset="1" stop-color="#E59554"/>
</linearGradient>
<linearGradient id="paint2_linear" x1="11.347" y1="6.585" x2="13.617" y2="6.585" gradientUnits="userSpaceOnUse">
<stop stop-color="#FF5491"/>
<stop offset="1" stop-color="#E59554"/>
</linearGradient>
</defs>
</svg>
