<svg width="21" height="26" viewBox="0 0 21 26" fill="none" xmlns="http://www.w3.org/2000/svg">
<path d="M20.286 18.358L18.259 15.832V8.854C18.26 4.467 14.693 0.910999 10.294 0.910999C5.895 0.910999 2.33 4.467 2.33 8.854V15.832L0.302998 18.358C0.028998 18.698 -0.024002 19.165 0.164998 19.558C0.354998 19.952 0.753998 20.202 1.191 20.202H19.397C19.835 20.202 20.233 19.952 20.423 19.559C20.613 19.165 20.559 18.699 20.286 18.358V18.358ZM3.559 17.931L4.356 16.938C4.517 16.738 4.605 16.487 4.605 16.229V8.854C4.605 5.721 7.152 3.181 10.295 3.181C13.436 3.181 15.983 5.721 15.983 8.854V16.23C15.983 16.488 16.071 16.738 16.233 16.94L17.029 17.932H3.56L3.559 17.931ZM13.892 21.401C13.607 21.301 13.295 21.318 13.022 21.447C12.75 21.577 12.541 21.81 12.44 22.093C12.119 23.001 11.259 23.608 10.294 23.608C9.329 23.608 8.469 23.001 8.148 22.093C8.013 21.711 7.683 21.43 7.283 21.356C6.883 21.281 6.475 21.426 6.21 21.734C5.946 22.042 5.867 22.467 6.002 22.849C6.644 24.664 8.364 25.878 10.294 25.878C12.224 25.878 13.944 24.664 14.586 22.849C14.686 22.565 14.67 22.253 14.54 21.982C14.41 21.71 14.177 21.502 13.892 21.402V21.401Z" fill="#FF8F63"/>
</svg>
