<svg width="25" height="26" viewBox="0 0 25 26" fill="none" xmlns="http://www.w3.org/2000/svg">
<path d="M23.21 10.663C22.762 10.33 22.38 9.916 22.083 9.443C21.944 8.872 21.916 8.28 21.999 7.698C22.066 6.609 22.142 5.375 21.339 4.574C20.536 3.772 19.303 3.847 18.214 3.914C17.633 3.996 17.041 3.967 16.47 3.829C15.996 3.532 15.581 3.149 15.248 2.7C14.514 1.862 13.683 0.910995 12.5 0.910995C11.317 0.910995 10.486 1.861 9.752 2.701C9.419 3.149 9.005 3.531 8.532 3.828C7.961 3.967 7.369 3.995 6.787 3.912C5.699 3.845 4.465 3.77 3.663 4.572C2.86 5.376 2.934 6.609 3.002 7.698C3.085 8.279 3.056 8.871 2.918 9.441C2.621 9.916 2.238 10.331 1.789 10.663C0.95 11.397 0 12.228 0 13.411C0 14.594 0.95 15.425 1.79 16.159C2.238 16.492 2.62 16.906 2.917 17.379C3.056 17.951 3.084 18.543 3.001 19.124C2.934 20.213 2.858 21.447 3.661 22.249C4.464 23.052 5.697 22.977 6.786 22.909C7.367 22.827 7.959 22.855 8.53 22.994C9.004 23.29 9.418 23.673 9.752 24.122C10.485 24.96 11.314 25.911 12.499 25.911C13.684 25.911 14.513 24.961 15.247 24.121C15.58 23.673 15.994 23.291 16.468 22.994C17.038 22.855 17.63 22.827 18.212 22.91C19.3 22.977 20.535 23.053 21.337 22.25C22.138 21.445 22.065 20.213 21.997 19.124C21.915 18.543 21.943 17.951 22.081 17.38C22.378 16.906 22.761 16.492 23.209 16.159C24.049 15.425 24.999 14.596 24.999 13.411C24.999 12.226 24.05 11.397 23.211 10.663H23.21ZM22.183 14.983C21.54 15.459 21.013 16.073 20.639 16.78C20.393 17.568 20.325 18.4 20.439 19.218C20.486 19.978 20.539 20.838 20.234 21.143C19.928 21.448 19.068 21.393 18.309 21.349C17.491 21.234 16.659 21.302 15.87 21.549C15.164 21.922 14.55 22.45 14.073 23.092C13.532 23.711 12.973 24.348 12.5 24.348C12.027 24.348 11.468 23.711 10.928 23.094C10.452 22.452 9.838 21.924 9.131 21.55C8.661 21.374 8.159 21.293 7.656 21.31C7.336 21.31 7.011 21.33 6.689 21.35C5.929 21.398 5.069 21.45 4.764 21.145C4.459 20.839 4.512 19.979 4.559 19.22C4.674 18.403 4.606 17.57 4.359 16.781C3.986 16.074 3.459 15.461 2.816 14.984C2.2 14.442 1.563 13.884 1.563 13.411C1.563 12.938 2.2 12.38 2.817 11.839C3.46 11.363 3.987 10.749 4.361 10.042C4.607 9.254 4.675 8.422 4.561 7.604C4.514 6.843 4.461 5.982 4.766 5.677C5.07 5.371 5.931 5.425 6.691 5.47C7.508 5.586 8.341 5.518 9.129 5.271C9.836 4.897 10.449 4.37 10.926 3.727C11.468 3.111 12.026 2.474 12.5 2.474C12.973 2.474 13.532 3.111 14.072 3.728C14.548 4.37 15.162 4.898 15.869 5.272C16.657 5.519 17.49 5.587 18.308 5.472C19.068 5.425 19.928 5.372 20.233 5.677C20.538 5.983 20.484 6.843 20.438 7.602C20.323 8.419 20.391 9.252 20.638 10.041C21.011 10.748 21.538 11.361 22.181 11.838C22.8 12.38 23.437 12.938 23.437 13.411C23.437 13.884 22.8 14.442 22.183 14.983V14.983Z" fill="url(#paint0_linear)"/>
<path d="M11.719 10.286C11.719 8.992 10.669 7.942 9.37501 7.942C8.08101 7.942 7.03101 8.992 7.03101 10.286C7.03101 11.58 8.08101 12.63 9.37501 12.63C10.669 12.63 11.719 11.58 11.719 10.286ZM8.59401 10.286C8.59401 9.855 8.94401 9.505 9.37501 9.505C9.80601 9.505 10.156 9.855 10.156 10.286C10.156 10.717 9.80601 11.067 9.37501 11.067C8.94401 11.067 8.59401 10.717 8.59401 10.286ZM15.625 14.192C14.331 14.192 13.281 15.242 13.281 16.536C13.281 17.83 14.331 18.88 15.625 18.88C16.919 18.88 17.969 17.83 17.969 16.536C17.969 15.242 16.919 14.192 15.625 14.192V14.192ZM15.625 17.317C15.194 17.317 14.844 16.967 14.844 16.536C14.844 16.105 15.194 15.755 15.625 15.755C16.056 15.755 16.406 16.105 16.406 16.536C16.406 16.967 16.056 17.317 15.625 17.317V17.317ZM16.94 8.971C16.804 8.816 16.608 8.726 16.401 8.722C16.195 8.719 15.996 8.802 15.854 8.952L8.04001 16.765C7.34101 17.465 8.43101 18.586 9.14501 17.87L16.958 10.057C17.106 9.914 17.188 9.716 17.185 9.51C17.182 9.304 17.093 9.108 16.94 8.97V8.971Z" fill="url(#paint1_linear)"/>
<defs>
<linearGradient id="paint0_linear" x1="0" y1="13.411" x2="24.999" y2="13.411" gradientUnits="userSpaceOnUse">
<stop stop-color="#FF5491"/>
<stop offset="1" stop-color="#E59554"/>
</linearGradient>
<linearGradient id="paint1_linear" x1="7.03101" y1="13.411" x2="17.969" y2="13.411" gradientUnits="userSpaceOnUse">
<stop stop-color="#FF5491"/>
<stop offset="1" stop-color="#E59554"/>
</linearGradient>
</defs>
</svg>
