<svg xmlns="http://www.w3.org/2000/svg" width="20" height="20" viewBox="0 0 20 20">
    <g fill="none" fill-rule="evenodd">
        <g fill="#FFF">
            <g>
                <g>
                    <g>
                        <g>
                            <g>
                                <g>
                                    <g>
                                        <path d="M13.095 7.639c0 3.013-2.443 5.456-5.456 5.456-3.014 0-5.457-2.443-5.457-5.456 0-3.014 2.443-5.457 5.457-5.457 3.013 0 5.456 2.443 5.456 5.457zm-.882 6.117c-1.275.955-2.859 1.521-4.574 1.521C3.419 15.277 0 11.857 0 7.64 0 3.419 3.42 0 7.639 0c4.218 0 7.638 3.42 7.638 7.639 0 1.715-.566 3.299-1.52 4.574l5.885 5.886c.426.426.426 1.117 0 1.543-.426.426-1.117.426-1.543 0l-5.886-5.886z" transform="translate(-915 -46) translate(-262 -8) translate(371 32) translate(318 1) translate(480 14) translate(8 7)"/>
                                    </g>
                                </g>
                            </g>
                        </g>
                    </g>
                </g>
            </g>
        </g>
    </g>
</svg>
