<svg width="25" height="26" viewBox="0 0 25 26" fill="none" xmlns="http://www.w3.org/2000/svg">
<path d="M4.688 25.911H10.938C13.523 25.911 15.625 23.809 15.625 21.223V19.661C15.625 18.798 14.925 18.098 14.062 18.098C13.2 18.098 12.5 18.798 12.5 19.661V21.224C12.5 22.085 11.8 22.786 10.937 22.786H4.687C3.826 22.786 3.125 22.086 3.125 21.223V5.599C3.125 4.738 3.825 4.037 4.688 4.037H10.938C11.799 4.037 12.5 4.737 12.5 5.6V7.161C12.5 8.023 13.2 8.724 14.063 8.724C14.925 8.724 15.625 8.024 15.625 7.161V5.598C15.625 3.014 13.523 0.910995 10.937 0.910995H4.687C2.103 0.910995 0 3.013 0 5.599V21.224C0 23.809 2.102 25.911 4.688 25.911Z" fill="url(#paint0_linear)"/>
<path d="M19.666 11.849H8.59401C7.73101 11.849 7.03101 12.549 7.03101 13.411C7.03101 14.274 7.73101 14.974 8.59401 14.974H19.666L18.49 16.149C17.88 16.759 17.88 17.749 18.49 18.359C18.795 18.664 19.195 18.816 19.595 18.816C19.995 18.816 20.394 18.664 20.699 18.359L24.542 14.516C25.152 13.906 25.152 12.916 24.542 12.306L20.7 8.46299C20.09 7.85299 19.101 7.85299 18.49 8.46299C17.88 9.07299 17.88 10.063 18.49 10.673L19.667 11.848L19.666 11.849Z" fill="url(#paint1_linear)"/>
<defs>
<linearGradient id="paint0_linear" x1="0" y1="13.411" x2="15.625" y2="13.411" gradientUnits="userSpaceOnUse">
<stop stop-color="#FF5491"/>
<stop offset="1" stop-color="#E59554"/>
</linearGradient>
<linearGradient id="paint1_linear" x1="7.03101" y1="13.4107" x2="24.9995" y2="13.4107" gradientUnits="userSpaceOnUse">
<stop stop-color="#FF5491"/>
<stop offset="1" stop-color="#E59554"/>
</linearGradient>
</defs>
</svg>
