<svg width="20" height="26" viewBox="0 0 20 26" fill="none" xmlns="http://www.w3.org/2000/svg">
<path d="M10 13.463C4.48 13.469 0.006 17.943 0 23.463C0 23.813 0.219 24.126 0.548 24.246C3.578 25.348 6.776 25.911 10 25.911C13.224 25.911 16.422 25.346 19.452 24.244C19.781 24.124 20 23.811 20 23.461C19.993 17.941 15.52 13.469 10 13.463V13.463ZM1.687 22.879C1.99 18.511 5.622 15.123 10 15.123C14.378 15.123 18.01 18.511 18.313 22.879C12.92 24.697 7.08 24.696 1.687 22.879V22.879ZM10 11.744C12.992 11.744 15.417 9.319 15.417 6.328C15.417 3.336 12.992 0.910995 10 0.910995C7.008 0.910995 4.583 3.336 4.583 6.328C4.587 9.318 7.01 11.741 10 11.744ZM10 2.578C12.071 2.578 13.75 4.257 13.75 6.328C13.75 8.398 12.071 10.078 10 10.078C7.929 10.078 6.25 8.398 6.25 6.328C6.252 4.258 7.93 2.58 10 2.578Z" fill="#FF8F63"/>
</svg>
