<svg width="25" height="19" viewBox="0 0 25 19" fill="none" xmlns="http://www.w3.org/2000/svg">
<g clip-path="url(#clip0)">
<path d="M14.84 0.911011H3.237C1.45 0.913011 0.002 2.35601 0 4.13601V15.696C0.002 17.477 1.45 18.92 3.237 18.922H14.84C16.627 18.92 18.075 17.477 18.077 15.697V4.13601C18.075 2.35601 16.627 0.913011 14.84 0.911011ZM15.817 15.697C15.817 16.234 15.38 16.67 14.84 16.67H3.237C2.697 16.67 2.26 16.234 2.26 15.697V4.13601C2.26 3.59901 2.697 3.16301 3.237 3.16201H14.84C15.38 3.16301 15.817 3.59901 15.817 4.13601V15.696V15.697ZM24.39 2.19301C24.015 1.99801 23.56 2.02001 23.206 2.24901L19.744 4.49401C19.214 4.83801 19.071 5.53401 19.424 6.05001C19.779 6.56601 20.495 6.70501 21.025 6.36101L22.692 5.28101V14.552L21.025 13.472C20.495 13.128 19.779 13.267 19.425 13.782C19.071 14.298 19.215 14.995 19.745 15.339L23.205 17.583C23.56 17.813 24.015 17.835 24.391 17.639C24.766 17.444 25.001 17.064 25 16.649V3.18401C25 2.77001 24.766 2.39001 24.39 2.19401V2.19301Z" fill="#FF8F63"/>
</g>
<defs>
<clipPath id="clip0">
<rect width="25" height="19" fill="white"/>
</clipPath>
</defs>
</svg>
